<?xml version="1.0" encoding="utf-8"?>
<!-- Generator: Adobe Illustrator 24.2.3, SVG Export Plug-In . SVG Version: 6.00 Build 0)  -->
<svg version="1.1" xmlns="http://www.w3.org/2000/svg" xmlns:xlink="http://www.w3.org/1999/xlink" x="0px" y="0px"
	 viewBox="0 0 400.2 400.1" style="enable-background:new 0 0 400.2 400.1;" xml:space="preserve">
<style type="text/css">
	.st0{fill:#FFFFFF;}
	.st1{display:none;}
	.st2{display:inline;fill:#FFFFFF;}
	.st3{fill-rule:evenodd;clip-rule:evenodd;}
</style>
<g id="Layer_2">
	<circle class="st0" cx="200.8" cy="200.9" r="196.9"/>
</g>
<g id="Layer_1">
	<g id="Layer_2_1_" class="st1">
		<circle class="st2" cx="200" cy="200.1" r="200"/>
	</g>
	<g id="svg">
		<g id="svgg">
			<path id="path0" class="st3" d="M193.3,0.1c-41.4,1.2-79.6,14.6-113.2,39.6C41.5,68.5,13.9,111.7,4.3,158.5
				c-5,24.7-5.5,50.1-1.5,75c5.2,32.4,18.4,62.2,39.4,89.3c24.5,31.6,55.6,53.8,93.1,66.6c6.7,2.3,12.6,0.3,14.6-5.1
				c0.8-2,0.8-2.2,0.7-11.6c0-4.3-0.1-12.7-0.1-18.8s-0.1-11-0.1-11s-1.7,0.3-3.8,0.6c-4.9,1-9.9,1.4-14.9,1.3c-3,0.1-6.1,0-9.1-0.3
				c-4.9-0.4-9.7-1.1-14.4-2.3c-12-3.5-21-11.5-24.9-22c-0.8-2.2-3.7-8.6-4.6-10.4c-5-9.1-11.4-16.4-16.9-19.3
				c-3.5-1.8-6.3-4.6-8.2-8c-0.8-1.7-0.5-2.6,1.2-3.5s5.8-1.3,8.7-0.9l2.5,0.4c3.8,0.5,7.6,2.2,12.5,5.3c6.8,4.4,10.7,8.5,15.2,16
				c5.3,8.9,12.2,15.2,20.2,18.4c4.2,1.7,7,2.2,12.6,2.1c6.4,0.1,12.7-0.9,18.8-2.8c2-0.7,3.9-1.4,5.8-2.3c0,0,0.1-0.7,0.3-1.5
				c1.6-10.3,5.4-18.3,11.4-24.3c0.6-0.6,1.1-1.1,1.1-1.1s-0.8-0.1-1.8-0.2c-16.1-1.8-28-4.7-38.6-9.3C98.4,268,85.6,253.7,77.7,228
				c-3.5-11.7-5.4-26.5-5-40.8c0.5-19.5,7.2-36.5,19.9-50.5l0.6-0.7l-0.3-0.7c-6-14.9-5.4-33.3,1.8-51.7l0.3-0.7l0.5-0.2
				c4.6-1.3,11.9-0.1,20.4,3.1c6.7,2.6,13.4,5.5,19.8,8.7c3,1.6,7.7,4.5,12.4,7.6l2,1.3l1.3-0.4c31.9-8.5,65.5-8.5,97.4,0l1.3,0.4
				l4.6-2.9c5.6-3.7,11.4-7,17.5-9.9c2.7-1.2,7.3-3.2,9-3.8l1.8-0.7c9.3-3.6,16.6-4.8,21.5-3.4l0.5,0.2l0.7,1.8
				c6.8,18,7.6,34,2.4,48.7c-0.3,0.8-0.6,1.7-0.8,2.1l-0.2,0.6l0.5,0.6c12.9,14.3,19.5,31,20,50.6c0.5,22.3-3.9,43.3-12.5,59.1
				c-7.8,14.3-20.3,24.8-39.1,32.8c-10.3,4.4-21.9,7.1-37.8,9l-1.8,0.2c0.2,0.2,0.4,0.4,0.6,0.6c7.4,6.8,11.6,16.5,12.7,29.4
				c0.3,3.2,0.3,4.5,0.3,33.3c0,32.4,0,30.6,0.7,32.6c2.1,5.7,7.7,7.6,15.1,5c26.1-9,49.3-22.7,68.3-40.1l1.4-1.2
				c15.5-14.5,28.7-31.1,39.3-49.5c19.4-33.8,27.9-72.4,25.1-113.2c-2-29.6-10.7-58.3-25.6-84c-17.1-30.2-41.9-55.4-71.7-73.1
				C269.3,8.2,233-1.1,193.3,0.1"/>
		</g>
	</g>
</g>
</svg>
