<?xml version="1.0" encoding="UTF-8" standalone="no"?>
<!-- Created with Inkscape (http://www.inkscape.org/) -->

<svg
   width="1920"
   height="1080"
   viewBox="0 0 508 285.75"
   version="1.1"
   id="svg5"
   inkscape:version="1.1 (c68e22c387, 2021-05-23)"
   sodipodi:docname="bg-pattern-lines-1.svg"
   xmlns:inkscape="http://www.inkscape.org/namespaces/inkscape"
   xmlns:sodipodi="http://sodipodi.sourceforge.net/DTD/sodipodi-0.dtd"
   xmlns="http://www.w3.org/2000/svg"
   xmlns:svg="http://www.w3.org/2000/svg">
  <sodipodi:namedview
     id="namedview7"
     pagecolor="#ffffff"
     bordercolor="#666666"
     borderopacity="1.0"
     inkscape:pageshadow="2"
     inkscape:pageopacity="0.0"
     inkscape:pagecheckerboard="0"
     inkscape:document-units="px"
     showgrid="false"
     inkscape:zoom="0.46735339"
     inkscape:cx="790.62228"
     inkscape:cy="508.18076"
     inkscape:window-width="1920"
     inkscape:window-height="1001"
     inkscape:window-x="-9"
     inkscape:window-y="-9"
     inkscape:window-maximized="1"
     inkscape:current-layer="layer1" />
  <defs
     id="defs2" />
  <g
     inkscape:label="Layer 1"
     inkscape:groupmode="layer"
     id="layer1">
    <path
       style="fill:none;stroke:#00ffff;stroke-width:1.05833333;stroke-linecap:butt;stroke-linejoin:miter;stroke-opacity:1;stroke-miterlimit:4;stroke-dasharray:none"
       d="m -24.343641,11.888755 c 0,0 63.972824,4.529049 81.52289,20.380722 17.550069,15.851674 25.475906,33.401741 52.650201,44.724365 27.1743,11.322624 87.75033,46.988888 137.56988,50.385678 49.81953,3.39678 97.94071,58.87764 136.43761,70.7664 38.49692,11.88875 85.48581,6.22744 116.05691,25.4759 30.57107,19.24846 34.534,21.51298 34.534,21.51298"
       id="path2992" />
    <path
       style="fill:none;stroke:#00ffff;stroke-width:1.05833;stroke-linecap:butt;stroke-linejoin:miter;stroke-miterlimit:4;stroke-dasharray:none;stroke-opacity:1"
       d="m -28.652598,24.734839 c 0,0 63.972824,4.529049 81.52289,20.380722 17.550069,15.851674 25.475906,33.401741 52.650178,44.724365 27.1743,11.322614 87.75033,46.988884 137.56988,50.385674 49.81953,3.39678 97.94071,58.87764 136.43761,70.7664 38.49692,11.88875 85.48581,6.22744 116.05691,25.4759 30.57107,19.24846 34.534,21.51298 34.534,21.51298"
       id="path2992-1" />
  </g>
</svg>
