<svg id="svg" version="1.1" xmlns="http://www.w3.org/2000/svg" xmlns:xlink="http://www.w3.org/1999/xlink" width="400" height="400" viewBox="0, 0, 400,400"><g id="svgg"><path id="path0" d="M192.625 33.395 C 191.938 33.446,189.631 33.611,187.500 33.762 C 123.500 38.299,67.713 80.179,44.067 141.438 C 43.972 141.684,45.847 141.750,52.938 141.750 L 61.929 141.750 62.995 139.313 C 65.604 133.351,70.100 125.019,73.653 119.563 L 75.484 116.750 101.463 116.750 L 127.443 116.750 126.709 119.438 C 125.152 125.143,121.750 140.274,121.750 141.495 C 121.750 141.664,124.657 141.750,130.334 141.750 L 138.918 141.750 139.621 138.313 C 140.574 133.650,142.515 125.741,143.915 120.813 L 145.070 116.750 168.285 116.750 L 191.500 116.750 191.500 129.250 L 191.500 141.750 200.000 141.750 L 208.500 141.750 208.500 129.250 L 208.500 116.750 231.715 116.750 L 254.930 116.750 256.085 120.813 C 257.485 125.741,259.426 133.650,260.379 138.313 L 261.082 141.750 269.666 141.750 C 275.343 141.750,278.250 141.664,278.250 141.495 C 278.250 140.274,274.848 125.143,273.291 119.438 L 272.557 116.750 298.537 116.750 L 324.516 116.750 326.347 119.563 C 329.900 125.019,334.396 133.351,337.005 139.313 L 338.071 141.750 347.062 141.750 C 354.155 141.750,356.027 141.684,355.929 141.438 C 331.416 79.740,278.873 39.847,214.250 33.869 C 210.412 33.514,195.463 33.187,192.625 33.395 M191.500 75.750 L 191.500 100.000 171.254 100.000 L 151.007 100.000 151.477 98.813 C 158.930 79.965,170.967 63.094,181.997 56.036 C 184.728 54.288,190.357 51.552,191.313 51.509 C 191.416 51.504,191.500 62.413,191.500 75.750 M210.307 52.091 C 224.746 57.528,239.952 76.234,248.756 99.392 L 248.988 100.000 228.744 100.000 L 208.500 100.000 208.500 75.750 C 208.500 62.413,208.554 51.500,208.619 51.500 C 208.685 51.500,209.444 51.766,210.307 52.091 M155.829 58.006 C 147.609 68.290,140.588 80.690,134.847 95.061 L 132.875 99.997 110.659 99.999 L 88.443 100.000 91.491 96.759 C 107.703 79.523,129.412 65.669,152.250 57.984 C 154.656 57.174,156.717 56.509,156.829 56.506 C 156.941 56.503,156.491 57.178,155.829 58.006 M247.711 57.978 C 270.447 65.590,292.151 79.423,308.405 96.662 L 311.553 100.000 289.339 100.000 L 267.125 100.000 265.409 95.687 C 259.536 80.930,252.462 68.379,244.171 58.006 C 243.509 57.178,243.041 56.500,243.132 56.500 C 243.223 56.500,245.283 57.165,247.711 57.978 M44.067 258.563 C 72.096 331.176,143.754 374.665,220.250 365.486 C 280.038 358.312,331.278 318.832,354.527 262.027 C 355.337 260.047,356.000 258.388,356.000 258.339 C 356.000 258.290,351.966 258.250,347.036 258.250 L 338.071 258.250 337.002 260.688 C 334.109 267.282,329.162 276.331,325.454 281.813 L 324.481 283.250 298.519 283.250 L 272.557 283.250 273.291 280.563 C 274.818 274.966,278.250 259.701,278.250 258.502 C 278.250 258.337,275.276 258.250,269.666 258.250 L 261.082 258.250 260.379 261.688 C 259.426 266.350,257.485 274.259,256.085 279.188 L 254.930 283.250 231.715 283.250 L 208.500 283.250 208.500 270.750 L 208.500 258.250 200.000 258.250 L 191.500 258.250 191.500 270.750 L 191.500 283.250 168.285 283.250 L 145.070 283.250 143.915 279.188 C 142.515 274.259,140.574 266.350,139.621 261.688 L 138.918 258.250 130.334 258.250 C 124.657 258.250,121.750 258.336,121.750 258.505 C 121.750 259.726,125.152 274.857,126.709 280.563 L 127.443 283.250 101.463 283.250 L 75.484 283.250 73.653 280.438 C 70.100 274.981,65.604 266.649,62.995 260.688 L 61.929 258.250 52.938 258.250 C 45.847 258.250,43.972 258.316,44.067 258.563 M134.569 304.256 C 140.315 318.689,147.236 331.115,154.965 340.875 C 156.054 342.250,156.912 343.410,156.873 343.454 C 156.576 343.778,144.099 339.143,138.539 336.643 C 121.301 328.891,104.349 316.865,91.595 303.338 L 88.447 300.000 110.661 300.000 L 132.875 300.000 134.569 304.256 M191.500 324.250 C 191.500 337.587,191.446 348.500,191.381 348.500 C 190.401 348.500,184.502 345.593,181.625 343.693 C 170.555 336.380,158.162 318.805,151.244 300.608 L 151.012 300.000 171.256 300.000 L 191.500 300.000 191.500 324.250 M248.523 301.188 C 240.878 320.521,228.773 337.252,217.242 344.423 C 214.647 346.037,209.438 348.500,208.619 348.500 C 208.554 348.500,208.500 337.587,208.500 324.250 L 208.500 300.000 228.746 300.000 L 248.993 300.000 248.523 301.188 M308.531 303.207 C 292.157 320.609,270.187 334.586,247.283 342.170 C 245.033 342.915,243.161 343.491,243.123 343.450 C 243.086 343.409,243.946 342.250,245.035 340.875 C 252.764 331.115,259.685 318.689,265.431 304.256 L 267.125 300.000 289.337 300.000 L 311.548 300.000 308.531 303.207 " stroke="none" fill="#2494f4" fill-rule="evenodd"></path><path id="path1" d="M33.336 158.810 C 33.414 159.121,37.369 177.656,42.126 200.000 C 46.882 222.344,50.837 240.878,50.914 241.188 L 51.054 241.750 60.989 241.750 L 70.924 241.750 75.731 222.688 C 78.376 212.203,81.179 201.132,81.961 198.085 L 83.383 192.545 89.363 216.335 C 92.653 229.419,95.440 240.491,95.559 240.938 L 95.774 241.750 105.741 241.750 L 115.709 241.750 115.990 240.438 C 119.732 223.014,133.250 158.972,133.250 158.670 C 133.250 158.007,110.755 158.024,110.740 158.688 C 110.693 160.700,103.284 206.758,103.109 206.125 C 102.995 205.713,100.357 194.800,97.246 181.875 L 91.590 158.375 83.348 158.309 L 75.106 158.243 69.240 182.973 C 66.014 196.575,63.319 207.649,63.250 207.582 C 63.181 207.515,61.494 196.416,59.500 182.917 L 55.875 158.375 44.535 158.310 L 33.195 158.245 33.336 158.810 M150.009 158.563 C 150.014 158.734,153.987 177.494,158.837 200.250 L 167.656 241.625 177.641 241.625 L 187.625 241.625 193.794 217.250 C 197.187 203.844,199.980 192.819,200.000 192.750 C 200.020 192.681,202.821 203.650,206.224 217.125 L 212.413 241.625 222.397 241.690 L 232.382 241.756 241.195 200.190 C 246.042 177.329,250.006 158.541,250.004 158.438 C 250.002 158.334,244.943 158.250,238.761 158.250 L 227.523 158.250 227.380 159.063 C 227.302 159.509,225.668 170.113,223.749 182.625 C 221.831 195.137,220.174 205.690,220.068 206.076 C 219.919 206.616,218.561 201.288,214.141 182.826 C 210.987 169.653,208.359 158.734,208.301 158.563 C 208.220 158.321,206.335 158.250,200.003 158.250 L 191.809 158.250 191.510 159.438 C 191.345 160.091,188.687 171.248,185.602 184.233 C 182.517 197.217,179.963 207.870,179.926 207.907 C 179.889 207.944,178.240 196.983,176.262 183.550 C 174.284 170.116,172.615 158.928,172.553 158.688 C 172.408 158.120,149.992 157.995,150.009 158.563 M266.739 158.563 C 266.734 158.734,270.693 177.522,275.538 200.313 L 284.347 241.750 294.287 241.750 L 304.226 241.750 304.447 240.938 C 304.568 240.491,307.357 229.474,310.646 216.456 C 313.934 203.438,316.695 192.919,316.780 193.081 C 316.866 193.243,319.676 204.261,323.026 217.565 L 329.117 241.756 339.097 241.690 L 349.077 241.625 357.751 200.750 C 362.521 178.269,366.507 159.508,366.608 159.060 L 366.791 158.245 355.475 158.310 L 344.159 158.375 340.467 182.250 C 338.437 195.381,336.742 206.346,336.701 206.616 C 336.659 206.886,333.985 196.113,330.759 182.675 L 324.893 158.243 316.651 158.309 L 308.409 158.375 302.523 183.172 C 299.285 196.811,296.609 207.942,296.575 207.908 C 296.511 207.844,289.250 158.834,289.250 158.464 C 289.250 158.095,266.752 158.194,266.739 158.563 " stroke="none" fill="#3c54b4" fill-rule="evenodd"></path></g></svg>