<?xml version="1.0" encoding="UTF-8" standalone="no"?>
<svg
   id="Layer_1"
   data-name="Layer 1"
   viewBox="0 0 472 472"
   version="1.1"
   sodipodi:docname="crypto-byte.svg"
   inkscape:version="1.1 (c68e22c387, 2021-05-23)"
   xmlns:inkscape="http://www.inkscape.org/namespaces/inkscape"
   xmlns:sodipodi="http://sodipodi.sourceforge.net/DTD/sodipodi-0.dtd"
   xmlns="http://www.w3.org/2000/svg"
   xmlns:svg="http://www.w3.org/2000/svg">
  <sodipodi:namedview
     id="namedview19"
     pagecolor="#ffffff"
     bordercolor="#666666"
     borderopacity="1.0"
     inkscape:pageshadow="2"
     inkscape:pageopacity="0.0"
     inkscape:pagecheckerboard="0"
     showgrid="false"
     inkscape:zoom="1.720339"
     inkscape:cx="235.70936"
     inkscape:cy="235.70936"
     inkscape:window-width="1920"
     inkscape:window-height="1001"
     inkscape:window-x="-9"
     inkscape:window-y="-9"
     inkscape:window-maximized="1"
     inkscape:current-layer="Layer_1" />
  <defs
     id="defs4">
    <style
       id="style2">.cls-1{fill:#fff;}.cls-2{fill:#d0a44a;}.cls-3{fill:#c0202f;}</style>
  </defs>
  <path
     class="cls-2"
     d="M60.72,432.77C59.62,307,164.89,195.86,301.94,200.83c118.88,4.32,224.32,102.51,222.86,235.46-1.37,124-103.33,232.49-240.13,228.61C164.05,661.48,60.33,561.7,60.72,432.77ZM292.84,636.25C402.89,637.7,502.59,543.49,496,421.09c-5.5-101.76-89.64-192.42-205-192C181.16,229.52,85.35,320,89.07,440.56,92.3,545.38,180.09,637.05,292.84,636.25Z"
     transform="translate(-57 -197)"
     id="path8" />
  <path
     class="cls-1"
     d="M292.84,636.25c-112.75.8-200.54-90.87-203.77-195.69C85.35,320,181.16,229.52,291,229.11c115.33-.44,199.47,90.22,205,192C502.59,543.49,402.89,637.7,292.84,636.25ZM278.27,417.93V521.3h11.82v32.4h22.14V521c2.39,0,4.21,0,6,0,28.62-.33,57.3.33,85.84-1.33,21-1.23,40.23-8.79,54.5-25.74,10.51-12.47,13.22-30.5,3.06-45-2.42-3.46-5.2-6.67-7.84-10,.76-.86,1.29-1.5,1.86-2.09,16.61-17.19,16.44-39.77-.05-56.88-15.41-16-35.1-21.85-56.2-23.81-11.9-1.11-24-.19-35.95-.83-7.56-.41-13.76.71-17.5,8.09-.87,1.72-2.4,3.11-3.59,4.69-7.31,9.72-14.61,19.46-22.47,29.94h5.72c21.33,0,42.67-.16,64,.16,5,.08,10,1.66,14.95,2.83,3.52.84,6.5,3.46,5.85,6.9a11.62,11.62,0,0,1-5.59,7.28,29.65,29.65,0,0,1-12.32,2.68c-25.67.23-51.34.11-77,.11Zm-31.34-62.07c-11.71,0-22.68,0-33.66,0-20.57-.05-40,4.52-57.7,15.13-18.18,10.86-31.25,25.87-36.17,46.92-5.32,22.77-2.06,44.13,11.53,63.51,11.43,16.31,27.12,26.92,45.66,33.52a105.84,105.84,0,0,0,37.26,6.1c10.93-.17,21.86,0,33.29,0v32.58h22.44V479c-18,0-35.7.19-53.36-.08-10.1-.16-19.86-2.27-28.65-7.67-16.72-10.28-22.46-24.83-16.92-44.5,4.47-15.83,23.26-27.54,40.52-27.7,31.16-.28,62.32-.05,93.48-.24,2.35,0,5.52-1,6.88-2.68,9.82-12.22,19.29-24.72,28.82-37.18a13.24,13.24,0,0,0,1.22-3c-8.45,0-16.45-.17-24.44.08-3.85.12-5.5-.9-5.21-5,.32-4.64.08-9.32.08-14V312.18H289.92c0,13.3.08,26.29-.12,39.26,0,1.49-1.54,4.15-2.51,4.22-5.72.4-11.49.2-17.76.2V312.15h-22.6Z"
     transform="translate(-57 -197)"
     id="path10" />
  <path
     class="cls-3"
     d="M278.27,417.93h37.25c25.66,0,51.33.12,77-.11a29.65,29.65,0,0,0,12.32-2.68,11.62,11.62,0,0,0,5.59-7.28c.65-3.44-2.54-5.43-5.85-6.9a40.12,40.12,0,0,0-14.95-2.83c-21.33-.32-42.67-.15-64-.16h-5.72c7.86-10.48,15.16-20.22,22.47-29.94,1.19-1.58,6.6-9.24,7.47-11,1.11-1.9,6-1.89,13.62-1.81,11.89-.08,24-.28,35.95.83,21.1,2,40.79,7.83,56.2,23.81,16.49,17.11,16.66,39.69.05,56.88-.57.59-1.1,1.23-1.86,2.09,2.64,3.35,5.42,6.56,7.84,10,10.16,14.52,7.45,32.55-3.06,45-14.27,17-33.48,24.51-54.5,25.74-28.54,1.66-57.22,1-85.84,1.33-1.81,0-3.63,0-6,0V553.7H290.09V521.3H278.27Zm51.78,60c23.55,0,47,.13,70.4-.13,3.75,0,7.66-1.43,11.15-3,2.12-.93,5-3.39,5-5.1-.05-1.88-2.75-4.68-4.84-5.33-5.41-1.67-11.09-3.18-16.71-3.32-16.3-.43-32.63-.15-48.94-.15h-16Z"
     transform="translate(-57 -197)"
     id="path12" />
  <path
     class="cls-3"
     d="M246.93,355.86V312.15h22.6v43.71c6.27,0,12,.2,17.76-.2,1-.07,2.49-2.73,2.51-4.22.2-13,.12-26,.12-39.26H312v24.74c0,4.67.24,9.35-.08,14-.29,4.13,1.36,5.15,5.21,5,8-.25,16.4,0,24.85,0a12.25,12.25,0,0,1-1.63,2.94c-9.53,12.46-19,25-28.82,37.18-1.36,1.68-4.53,2.66-6.88,2.68-31.16.19-62.32,0-93.48.24-17.26.16-36,11.87-40.52,27.7-5.54,19.67.2,34.22,16.92,44.5,8.79,5.4,18.55,7.51,28.65,7.67,17.66.27,35.32.08,53.36.08v74.63H247.14V521c-11.43,0-22.36-.13-33.29,0a105.84,105.84,0,0,1-37.26-6.1c-18.54-6.6-34.23-17.21-45.66-33.52-13.59-19.38-16.85-40.74-11.53-63.51,4.92-21.05,18-36.06,36.17-46.92,17.74-10.61,37.13-15.18,57.7-15.13C224.25,355.88,235.22,355.86,246.93,355.86Z"
     transform="translate(-57 -197)"
     id="path14" />
  <path
     class="cls-1"
     d="M330.05,478V461h16c16.31,0,32.64-.28,48.94.15,5.62.14,11.3,1.65,16.71,3.32,2.09.65,4.79,3.45,4.84,5.33.05,1.71-2.84,4.17-5,5.1-3.49,1.54-7.4,2.93-11.15,3C377,478.08,353.6,478,330.05,478Z"
     transform="translate(-57 -197)"
     id="path16" />
</svg>
